<svg xmlns="http://www.w3.org/2000/svg" xmlns:xlink="http://www.w3.org/1999/xlink" viewBox="0 0 3214.99 2277.01"><defs><radialGradient id="a" cx="451.59" cy="793.54" r="321.78" gradientTransform="matrix(1, 0, 0, -0.8, 0, 927.08)" gradientUnits="userSpaceOnUse"><stop offset="0" stop-color="#204a87"/><stop offset="1" stop-color="#204a87" stop-opacity="0"/></radialGradient><radialGradient id="c" cx="451.59" cy="793.55" r="321.78" xlink:href="#a"/><radialGradient id="d" cx="451.59" cy="793.55" r="321.65" xlink:href="#a"/><radialGradient id="e" cx="1120.67" cy="819.99" r="321.78" gradientTransform="matrix(-1.9, -0.55, -0.44, 1.52, 2605.84, -852.93)" xlink:href="#a"/><radialGradient id="f" cx="1120.67" cy="819.35" r="322.42" gradientTransform="matrix(-1.9, -0.55, -0.44, 1.52, 2605.84, -852.93)" xlink:href="#a"/><radialGradient id="g" cx="1120.67" cy="820" r="321.78" gradientTransform="matrix(-1.9, -0.55, -0.44, 1.52, 2605.84, -852.93)" xlink:href="#a"/><radialGradient id="i" cx="1204.89" cy="991.14" r="321.78" gradientTransform="matrix(-1.03, -0.72, -0.57, 0.82, 2170.22, 353.74)" xlink:href="#a"/><radialGradient id="j" cx="1204.89" cy="990.5" r="322.42" gradientTransform="matrix(-1.03, -0.72, -0.57, 0.82, 2170.22, 353.74)" xlink:href="#a"/><radialGradient id="k" cx="1204.89" cy="991.14" r="321.78" gradientTransform="matrix(-1.03, -0.72, -0.57, 0.82, 2170.22, 353.74)" xlink:href="#a"/><radialGradient id="l" cx="1204.89" cy="991.14" r="321.91" gradientTransform="matrix(-1.03, -0.72, -0.57, 0.82, 2170.22, 353.74)" xlink:href="#a"/><radialGradient id="m" cx="1367.57" cy="175.01" r="321.78" gradientTransform="matrix(-0.51, 0.45, 0.36, 0.41, 778.59, 72.66)" xlink:href="#a"/><radialGradient id="o" cx="1367.57" cy="175.01" r="321.78" gradientTransform="matrix(-0.51, 0.45, 0.36, 0.41, 778.59, 72.66)" xlink:href="#a"/><radialGradient id="q" cx="1247.43" cy="882.05" r="321.78" gradientTransform="matrix(-1.17, -0.41, -0.33, 0.93, 2089.52, 434.54)" xlink:href="#a"/><radialGradient id="r" cx="1247.43" cy="881.4" r="322.42" gradientTransform="matrix(-1.17, -0.41, -0.33, 0.93, 2089.52, 434.54)" xlink:href="#a"/><radialGradient id="s" cx="1247.43" cy="882.05" r="321.78" gradientTransform="matrix(-1.17, -0.41, -0.33, 0.93, 2089.52, 434.54)" xlink:href="#a"/><radialGradient id="t" cx="1247.43" cy="882.05" r="321.89" gradientTransform="matrix(-1.17, -0.41, -0.33, 0.93, 2089.52, 434.54)" xlink:href="#a"/><radialGradient id="u" cx="985.84" cy="1159.67" r="321.78" gradientTransform="matrix(-0.27, -1.33, -1.06, 0.22, 2159.92, 997.8)" xlink:href="#a"/><radialGradient id="v" cx="985.84" cy="1159.03" r="322.42" gradientTransform="matrix(-0.27, -1.33, -1.06, 0.22, 2159.92, 997.8)" xlink:href="#a"/><radialGradient id="w" cx="985.84" cy="1159.68" r="321.78" gradientTransform="matrix(-0.27, -1.33, -1.06, 0.22, 2159.92, 997.8)" xlink:href="#a"/><radialGradient id="x" cx="985.84" cy="1159.68" r="322.01" gradientTransform="matrix(-0.27, -1.33, -1.06, 0.22, 2159.92, 997.8)" xlink:href="#a"/><radialGradient id="y" cx="1238.62" cy="809.51" r="321.78" gradientTransform="matrix(-1.29, -0.24, -0.19, 1.03, 2887.42, -487.89)" xlink:href="#a"/><radialGradient id="z" cx="1238.62" cy="808.86" r="322.42" gradientTransform="matrix(-1.29, -0.24, -0.19, 1.03, 2887.42, -487.89)" xlink:href="#a"/><radialGradient id="aa" cx="1238.62" cy="809.51" r="321.78" gradientTransform="matrix(-1.29, -0.24, -0.19, 1.03, 2887.42, -487.89)" xlink:href="#a"/><radialGradient id="ab" cx="1238.62" cy="809.51" r="321.97" gradientTransform="matrix(-1.29, -0.24, -0.19, 1.03, 2887.42, -487.89)" xlink:href="#a"/><radialGradient id="ac" cx="670.61" cy="1598.73" r="321.78" gradientTransform="matrix(0.24, -0.59, -0.47, -0.19, 1214.2, 1335.11)" xlink:href="#a"/><radialGradient id="ae" cx="670.61" cy="1598.73" r="321.78" gradientTransform="matrix(0.24, -0.59, -0.47, -0.19, 1214.2, 1335.11)" xlink:href="#a"/><radialGradient id="ag" cx="436.35" cy="797.77" r="321.78" gradientTransform="matrix(0.97, -0.01, 0, -0.77, 58.54, 1555.89)" xlink:href="#a"/><radialGradient id="ai" cx="436.35" cy="797.77" r="321.78" gradientTransform="matrix(0.97, -0.01, 0, -0.77, 58.54, 1555.89)" xlink:href="#a"/><radialGradient id="aj" cx="436.35" cy="797.77" r="321.62" gradientTransform="matrix(0.97, -0.01, 0, -0.77, 58.54, 1555.89)" xlink:href="#a"/><radialGradient id="ak" cx="1442.34" cy="633.76" r="321.78" gradientTransform="matrix(-0.81, 0.1, 0.08, 0.64, 1483.72, -51.9)" xlink:href="#a"/><radialGradient id="am" cx="1442.34" cy="633.76" r="321.78" gradientTransform="matrix(-0.81, 0.1, 0.08, 0.64, 1483.72, -51.9)" xlink:href="#a"/><radialGradient id="an" cx="1442.34" cy="633.76" r="321.47" gradientTransform="matrix(-0.81, 0.1, 0.08, 0.64, 1483.72, -51.9)" xlink:href="#a"/><radialGradient id="ao" cx="1019.3" cy="267.88" r="321.78" gradientTransform="matrix(-0.39, 1.03, 0.82, 0.31, 1165.75, -372.91)" xlink:href="#a"/><radialGradient id="aq" cx="1019.3" cy="267.88" r="321.78" gradientTransform="matrix(-0.39, 1.03, 0.82, 0.31, 1165.75, -372.91)" xlink:href="#a"/><radialGradient id="ar" cx="1019.3" cy="267.88" r="321.75" gradientTransform="matrix(-0.39, 1.03, 0.82, 0.31, 1165.75, -372.91)" xlink:href="#a"/><radialGradient id="as" cx="1285.7" cy="-1109.11" r="321.78" gradientTransform="matrix(-0.09, 0.28, 0.22, 0.07, 1224.42, 627.61)" xlink:href="#a"/><radialGradient id="au" cx="1285.7" cy="-1109.11" r="321.78" gradientTransform="matrix(-0.09, 0.28, 0.22, 0.07, 1224.42, 627.61)" xlink:href="#a"/><radialGradient id="aw" cx="1257.71" cy="1158.71" r="321.78" gradientTransform="matrix(-0.66, -0.66, -0.53, 0.53, 2523.9, 1434.16)" xlink:href="#a"/><radialGradient id="ay" cx="1257.71" cy="1158.71" r="321.78" gradientTransform="matrix(-0.66, -0.66, -0.53, 0.53, 2523.9, 1434.16)" xlink:href="#a"/><radialGradient id="az" cx="1257.71" cy="1158.71" r="321.59" gradientTransform="matrix(-0.66, -0.66, -0.53, 0.53, 2523.9, 1434.16)" xlink:href="#a"/><radialGradient id="ba" cx="590.7" cy="802.63" r="321.78" gradientTransform="matrix(1.44, -0.07, -0.06, -1.15, 465.66, 1385.33)" xlink:href="#a"/><radialGradient id="bb" cx="590.7" cy="801.99" r="322.42" gradientTransform="matrix(1.44, -0.07, -0.06, -1.15, 465.66, 1385.33)" xlink:href="#a"/><radialGradient id="bc" cx="590.7" cy="802.64" r="321.78" gradientTransform="matrix(1.44, -0.07, -0.06, -1.15, 465.66, 1385.33)" xlink:href="#a"/><radialGradient id="bd" cx="590.7" cy="802.64" r="322.1" gradientTransform="matrix(1.44, -0.07, -0.06, -1.15, 465.66, 1385.33)" xlink:href="#a"/><radialGradient id="be" cx="527" cy="280.91" r="321.78" gradientTransform="matrix(0.55, 0.64, 0.51, -0.44, 999.41, 539.78)" xlink:href="#a"/><radialGradient id="bg" cx="527" cy="280.92" r="321.78" gradientTransform="matrix(0.55, 0.64, 0.51, -0.44, 999.41, 539.78)" xlink:href="#a"/><radialGradient id="bh" cx="527" cy="280.92" r="321.49" gradientTransform="matrix(0.55, 0.64, 0.51, -0.44, 999.41, 539.78)" xlink:href="#a"/><radialGradient id="bi" cx="318.94" cy="267.13" r="321.78" gradientTransform="matrix(0.51, 0.39, 0.31, -0.41, 937.13, 784.4)" xlink:href="#a"/><radialGradient id="bk" cx="318.94" cy="267.13" r="321.78" gradientTransform="matrix(0.51, 0.39, 0.31, -0.41, 937.13, 784.4)" xlink:href="#a"/><radialGradient id="bm" cx="-424.36" cy="871.55" r="321.78" gradientTransform="matrix(0.34, 0, 0, -0.27, 1935.89, 331.74)" xlink:href="#a"/><radialGradient id="bo" cx="-424.36" cy="871.55" r="321.78" gradientTransform="matrix(0.34, 0, 0, -0.27, 1935.89, 331.74)" xlink:href="#a"/><radialGradient id="bq" cx="876.56" cy="298.84" r="321.78" gradientTransform="matrix(0, 1.22, 0.97, 0, 1416.96, -507.45)" xlink:href="#a"/><radialGradient id="bs" cx="876.56" cy="298.84" r="321.78" gradientTransform="matrix(0, 1.22, 0.97, 0, 1416.96, -507.45)" xlink:href="#a"/><radialGradient id="bt" cx="876.56" cy="298.84" r="321.87" gradientTransform="matrix(0, 1.22, 0.97, 0, 1416.96, -507.45)" xlink:href="#a"/><radialGradient id="bu" cx="2089.33" cy="2715.9" r="321.78" gradientTransform="matrix(-0.13, -0.19, -0.15, 0.1, 2466.35, 619.92)" xlink:href="#a"/><radialGradient id="bw" cx="2089.33" cy="2715.9" r="321.78" gradientTransform="matrix(-0.13, -0.19, -0.15, 0.1, 2466.35, 619.92)" xlink:href="#a"/><radialGradient id="by" cx="601.11" cy="782.03" r="321.78" gradientTransform="matrix(1.5, 0, 0, -1.2, 1061.4, 2015.42)" xlink:href="#a"/><radialGradient id="bz" cx="601.11" cy="781.39" r="322.42" gradientTransform="matrix(1.5, 0, 0, -1.2, 1061.4, 2015.42)" xlink:href="#a"/><radialGradient id="ca" cx="601.11" cy="782.04" r="321.78" gradientTransform="matrix(1.5, 0, 0, -1.2, 1061.4, 2015.42)" xlink:href="#a"/><radialGradient id="cc" cx="1359.54" cy="551.05" r="321.78" gradientTransform="matrix(-0.88, 0.26, 0.2, 0.7, 2968.8, -344.08)" xlink:href="#a"/><radialGradient id="ce" cx="1359.54" cy="551.05" r="321.78" gradientTransform="matrix(-0.88, 0.26, 0.2, 0.7, 2968.8, -344.08)" xlink:href="#a"/><radialGradient id="cf" cx="1359.54" cy="551.05" r="321.57" gradientTransform="matrix(-0.88, 0.26, 0.2, 0.7, 2968.8, -344.08)" xlink:href="#a"/><radialGradient id="cg" cx="1155.23" cy="992.31" r="321.78" gradientTransform="matrix(-1.09, -0.91, -0.72, 0.87, 3852.63, 248.25)" xlink:href="#a"/><radialGradient id="ch" cx="1155.23" cy="991.66" r="322.42" gradientTransform="matrix(-1.09, -0.91, -0.72, 0.87, 3852.63, 248.25)" xlink:href="#a"/><radialGradient id="ci" cx="1155.23" cy="992.31" r="321.78" gradientTransform="matrix(-1.09, -0.91, -0.72, 0.87, 3852.63, 248.25)" xlink:href="#a"/><radialGradient id="cj" cx="1155.23" cy="992.31" r="322.07" gradientTransform="matrix(-1.09, -0.91, -0.72, 0.87, 3852.63, 248.25)" xlink:href="#a"/><radialGradient id="ck" cx="467.92" cy="796.31" r="321.78" gradientTransform="matrix(1.04, -0.01, -0.01, -0.83, 793.97, 972.52)" xlink:href="#a"/><radialGradient id="cm" cx="467.92" cy="796.32" r="321.78" gradientTransform="matrix(1.04, -0.01, -0.01, -0.83, 793.97, 972.52)" xlink:href="#a"/><radialGradient id="cn" cx="467.92" cy="796.32" r="321.69" gradientTransform="matrix(1.04, -0.01, -0.01, -0.83, 793.97, 972.52)" xlink:href="#a"/><radialGradient id="co" cx="528.38" cy="780.88" r="321.78" gradientTransform="matrix(1.21, 0.02, 0.01, -0.96, 907.87, 1804.16)" xlink:href="#a"/><radialGradient id="cq" cx="528.38" cy="780.88" r="321.78" gradientTransform="matrix(1.21, 0.02, 0.01, -0.96, 907.87, 1804.16)" xlink:href="#a"/><radialGradient id="cr" cx="528.38" cy="780.88" r="321.86" gradientTransform="matrix(1.21, 0.02, 0.01, -0.96, 907.87, 1804.16)" xlink:href="#a"/><radialGradient id="cs" cx="490.42" cy="1260.52" r="321.78" gradientTransform="matrix(0.59, -0.51, -0.41, -0.47, 2239.68, 1971.25)" xlink:href="#a"/><radialGradient id="cu" cx="490.42" cy="1260.52" r="321.78" gradientTransform="matrix(0.59, -0.51, -0.41, -0.47, 2239.68, 1971.25)" xlink:href="#a"/><radialGradient id="cw" cx="1027.13" cy="1137.2" r="321.78" gradientTransform="matrix(-0.45, -1.29, -1.03, 0.36, 3893.26, 864.28)" xlink:href="#a"/><radialGradient id="cx" cx="1027.13" cy="1136.56" r="322.42" gradientTransform="matrix(-0.45, -1.29, -1.03, 0.36, 3893.26, 864.28)" xlink:href="#a"/><radialGradient id="cy" cx="1027.13" cy="1137.21" r="321.78" gradientTransform="matrix(-0.45, -1.29, -1.03, 0.36, 3893.26, 864.28)" xlink:href="#a"/><radialGradient id="cz" cx="1027.13" cy="1137.21" r="322.02" gradientTransform="matrix(-0.45, -1.29, -1.03, 0.36, 3893.26, 864.28)" xlink:href="#a"/><radialGradient id="da" cx="-145.94" cy="863.74" r="321.78" gradientTransform="matrix(0.43, -0.01, -0.01, -0.34, 183.58, 668.9)" xlink:href="#a"/><radialGradient id="dc" cx="-145.94" cy="863.74" r="321.78" gradientTransform="matrix(0.43, -0.01, -0.01, -0.34, 183.58, 668.9)" xlink:href="#a"/><radialGradient id="de" cx="466.09" cy="789.44" r="321.78" gradientTransform="matrix(1.03, 0.01, 0, -0.83, 574.98, 996.3)" xlink:href="#a"/><radialGradient id="dg" cx="466.09" cy="789.44" r="321.78" gradientTransform="matrix(1.03, 0.01, 0, -0.83, 574.98, 996.3)" xlink:href="#a"/><radialGradient id="dh" cx="466.09" cy="789.44" r="321.65" gradientTransform="matrix(1.03, 0.01, 0, -0.83, 574.98, 996.3)" xlink:href="#a"/><radialGradient id="di" cx="263.74" cy="864" r="321.78" gradientTransform="matrix(0.7, -0.05, -0.04, -0.56, 2103.21, 1401.21)" xlink:href="#a"/><radialGradient id="dk" cx="263.74" cy="864" r="321.78" gradientTransform="matrix(0.7, -0.05, -0.04, -0.56, 2103.21, 1401.21)" xlink:href="#a"/></defs><rect x="539.52" y="813.31" width="1920" height="1080" style="fill:#0d1a2e"/><path d="M202.85,386.91v11.95q0,46.78,53.94,74.09a162.63,162.63,0,0,0,31.42,5.81q57.69,0,82.28-60.78l3.42-22.19v-4.44q0-60.44-65.22-82.63l-22.53-2.39q-56,0-81.26,61.8ZM281,235.65h13q75.8,0,128.38,75.46Q446,352.77,446,392.37q0,78.19-71.36,130.77Q334,549.43,290.26,549.43h-6.49q-75.12,0-129.4-74.43-23.56-42.35-23.56-82.63,0-52.92,37.9-103.46l140-241q15.36-9.23,26.63-9.22,25.6,0,33.46,35.17,0,14.34-32.44,65.56Z" transform="translate(539.52 813.31)" style="stroke-width:1.9999799728393555px;fill:url(#a);stroke:url(#a)"/><path d="M618.71,37.62q63.51,0,107.55,56,25.28,34.48,25.27,75.8v6.48q0,55.66-40.29,92.19,61.11,44.39,61.12,123.6,0,78.54-71.71,131.45Q660,549.43,616,549.43h-6.49Q534,549.43,479.4,475q-23.55-42.67-23.56-83.31,0-81.94,65.56-128-21.16-16.39-31.75-58.73-4.11-10.57-4.1-29v-6.49q0-70.34,67.26-113.36,33.47-18.44,65.9-18.44Zm-62.14,137.6q0,41,49.85,57.71l12.64,1.36q43.35,0,59.41-46.44l2.39-16.38q0-45.42-48.83-60.1L617,110q-42,0-58.39,45.07Zm-29.7,216.13q0,60.43,64.53,84,7.86,3.06,24.58,3.07,57,0,81.95-63.51l2.39-17.41V385.21q0-48.49-57-75.46Q627.6,305,614.62,305q-62.14,0-84.34,63.51Z" transform="translate(539.52 813.31)" style="stroke-width:1.9999799728393555px;fill:url(#c);stroke:url(#d)"/><path d="M636.85-263.41l6.57-22.76q25.71-89.08-62-170.75a321.39,321.39,0,0,0-56.63-28.32Q414.92-517,334.68-414.75L316-374.36l-2.44,8.45q-33.23,115.08,78.76,193.2l41.6,16.94q106.64,30.8,188.72-73ZM404.79-18.36l-24.71-7.13q-144.34-41.67-203-214.27-22-92.28-.19-167.7,43-148.91,207.78-209.8Q476.52-645,559.75-621l12.35,3.57q143.05,41.29,205.5,212.88,21.58,93.58-.57,170.3Q747.95-133.43,648-58L248.88,324q-34.33,9.11-55.79,2.91-48.76-14.08-44.38-85.37,7.89-27.3,97.81-107Z" transform="translate(539.52 813.31)" style="stroke-miterlimit:7.928283993819117;stroke-width:3.9641419969095586px;fill:url(#e);stroke:url(#f)"/><path d="M-347.12,173.1q-120.94-34.9-174-165.76-29.15-79.56-6.44-158.23l3.57-12.36q30.6-106,127.41-153.4-92-118.12-48.44-269,43.19-149.55,208.81-210.9,91.83-27.74,175.71-3.52l12.35,3.57Q95.52-755,158.63-583.21,180-489,157.69-411.61q-45,156.06-195.23,207.79Q-6.24-161-9.36-74.53q2,22.41-8.15,57.52L-21.08-4.66q-38.67,134-190.41,178.9-73.86,16.71-135.63-1.12Zm194-227.87q22.53-78-63.21-137.29l-23.3-9.54q-82.57-23.85-138.67,55.76l-13.56,29.9q-25,86.48,59.94,141.28l27.86,10.86q80,23.09,136-53.73ZM22.25-450Q55.47-565.1-54.46-645.44q-13.26-10.17-45.12-19.37-108.59-31.34-191,75.89l-14.12,31.85-6.76,23.4q-26.65,92.34,67.1,175,27.29,17.73,52,24.87Q-74-299.6,3.17-408.33Z" transform="translate(539.52 813.31)" style="stroke-miterlimit:7.928283993819117;stroke-width:3.9641419969095586px;fill:url(#g);stroke:url(#g)"/><path d="M683.69,385.72l8.59-12.31q33.62-48.2-2.34-115.09a203.35,203.35,0,0,0-28.19-28.55q-59.44-41.46-128.44,3.48l-19.46,20.41-3.19,4.58q-43.43,62.25,7.81,132L540,408.87q57.69,40.25,128.12-5.27ZM494.46,485.37l-13.37-9.32q-78.09-54.46-78-170,5.67-59.83,34.12-100.64Q493.36,124.87,604.65,122q60.75,2.11,105.77,33.52l6.69,4.66q77.39,54,79.82,169.66-6.15,60.54-35.1,102.05-38,54.52-113.38,79.35L331,658.94Q308.58,657.4,297,649.3q-26.39-18.39-9.2-60.27,10.31-14.78,80.52-44.23Z" transform="translate(539.52 813.31)" style="stroke-miterlimit:5.024097784498678;stroke-width:2.512048892249339px;fill:url(#i);stroke:url(#j)"/><path d="M4.29,446.74q-65.43-45.63-70.57-135-1.25-53.68,28.44-96.24l4.66-6.69q40-57.33,107.75-66Q43.51,53.19,100.42-28.42q56.43-80.89,168.32-83.9,60.75,2.11,106.12,33.76l6.69,4.66q77.73,54.23,80.53,170.16Q455.69,157.14,426.49,199,367.62,283.43,267,283.81q10,32.1-9.48,83.32Q254.08,381,240.83,400l-4.66,6.69q-50.53,72.45-150.75,68.45-47.71-5.06-81.13-28.36Zm162.89-97.1q29.43-42.21-9.9-95.27l-12-10.48Q100.58,212.74,50.68,249L36.44,264.21Q3.81,311,43.56,361.2l14.5,12.2q43.26,30.17,92.53-4.48Zm185.9-201.32Q396.51,86.07,347,15.42q-5.88-8.8-23.12-20.82-58.74-41-130,6.54l-15,16.22L170,30Q135.14,80,174.49,148.73q12.75,16.22,26.12,25.54,64,44.64,132.51-4.83Z" transform="translate(539.52 813.31)" style="stroke-miterlimit:5.024097784498678;stroke-width:2.512048892249339px;fill:url(#k);stroke:url(#l)"/><g style="opacity:0.8184099793434143"><path d="M227.92,598.22l-5.36-6.1q-21-23.89-60.79-13.64a110.79,110.79,0,0,0-18.65,11.12q-29.46,25.89-14.76,68l8.21,12.87,2,2.26q27.12,30.87,70.38,12.95l12.58-8.89q28.6-25.11,13.78-68Zm27.92,112.34-6.62,5.82q-38.72,34-99.43,19-30.7-10.71-48.48-30.94-35.09-39.94-22.22-98.81,9-31.65,31.28-51.26l3.32-2.91q38.35-33.69,99.48-20,31,11.07,49.1,31.64,23.75,27,27.05,69.85L326,818.88q-3.7,11.6-9.46,16.66-13.08,11.48-32.87-3-6.44-7.32-12.84-48Z" transform="translate(539.52 813.31)" style="stroke-miterlimit:2.7191433489934873;stroke-width:1.3595716744967437px;fill:url(#m);stroke:url(#m)"/><path d="M172.21,963.19q-32.44,28.48-80.06,19.64-28.37-6.29-46.9-27.38l-2.92-3.32q-25-28.43-20.77-65.16-51.13,4.75-86.67-35.71Q-100.33,811.15-87.45,752q9-31.65,31.45-51.41l3.32-2.91q38.54-33.86,99.83-20.34,31.18,11.24,49.41,32,36.76,41.85,24,94.8,18.17-1.12,42.57,15.75,6.84,3.57,15.11,13l2.91,3.31q31.54,35.93,16.5,88.08-8.82,24.42-25.39,39Zm-30-98.16q-18.39-20.92-51.35-7.11l-7.07,5q-22.14,19.44-9.51,50.37l6.13,9.44q20.37,23.19,51.9,8.79l8.28-6q21.45-18.84,9.61-49.21ZM60.43,741.31q-27.1-30.87-70.64-13.95-5.38,1.95-13.93,9.45Q-53.27,762.4-37.51,806l6.59,10,5.52,6.28q21.75,24.76,63,13a67.54,67.54,0,0,0,16.8-10.42Q86.11,796.92,69,754.53Z" transform="translate(539.52 813.31)" style="stroke-miterlimit:2.7191433489934873;stroke-width:1.3595716744967437px;fill:url(#o);stroke:url(#o)"/></g><g style="opacity:0.5835999846458435"><path d="M668.09,737.72l4.93-14q19.31-54.78-32.59-109A201.5,201.5,0,0,0,606,595q-67.56-23.81-121.42,37.21l-13.16,24.58-1.83,5.2q-24.94,70.77,42.26,123.67l25.4,12.1q65.57,23.1,120.65-38.84Zm-154,144.87-15.19-5.36Q410.17,846,379.75,735.9,369.36,677.4,385.7,631,418,539.46,523.21,507.33q58.42-14,109.6,4l7.6,2.68q87.95,31,120.8,140.56,10.11,59.29-6.52,106.48-21.84,62-87.07,105.51L404.24,1091.06q-21.78,4.45-35-.19-30-10.57-24.67-55,5.93-16.8,65-63.38Z" transform="translate(539.52 813.31)" style="stroke-miterlimit:4.965929607376934;stroke-width:2.482964803688467px;fill:url(#q);stroke:url(#r)"/><path d="M37,975.14Q-37.35,948.94-65.81,865.19q-15.34-50.82,1.7-99.19l2.67-7.6q23-65.17,85.22-91.32-53.25-77.21-20.56-170,32.42-92,138.2-124.34,58.43-14,110,4.15l7.59,2.68q88.37,31.14,121.61,140.84,10,59.7-6.79,107.28-33.82,96-129.6,122.88,18,27.93,13,81.88.44,14.09-7.18,35.67l-2.68,7.6q-29,82.37-125.53,105Q75,988.54,37,975.15ZM166.56,839.65q16.91-48-34.56-88.14l-14.23-6.81Q67,726.81,29,774.56l-9.56,18.2Q.75,845.94,51.86,883.28l17,7.8q49.19,17.32,87-28.69Zm124-240.83q24.94-70.77-40.9-125-7.92-6.84-27.51-13.74Q155.34,436.55,100,500.64L90,520.05,84.9,534.44q-20,56.77,35.62,111.89,16.42,12.07,31.61,17.43,72.76,25.65,125-39.56Z" transform="translate(539.52 813.31)" style="stroke-miterlimit:4.965929607376934;stroke-width:2.482964803688467px;fill:url(#s);stroke:url(#t)"/></g><g style="opacity:0.38962000608444214"><path d="M857.27,244.88l15.85-3.22q62-12.61,83.7-91.51a220.72,220.72,0,0,0-.77-43.22Q940.48,30.41,853.27,14.21l-30.35,1.45L817,16.86q-80.13,16.29-92,108.75L728,156.14q15.1,74.25,103.86,91.09ZM635.62,182l-3.5-17.21Q611.69,64.28,697.56-25.79,746.45-68.27,799-78.95,902.64-100,991.6-19.59q45.82,46.8,57.61,104.74l1.75,8.61q20.25,99.6-63.81,191.65-49.78,42.66-103.21,53.52-70.17,14.26-147.41-22.36L379.16,195.94q-16.37-17.88-19.4-32.82-6.9-34,37.61-53.86,19-3.86,95.67,25.34Z" transform="translate(539.52 813.31)" style="stroke-miterlimit:5.412558823109405;stroke-width:2.7062794115547026px;fill:url(#u);stroke:url(#v)"/><path d="M282-212.38q-17.13-84.21,45.25-157.71,38.91-42.8,93.7-53.94l8.6-1.75q73.8-15,133.1,28.57,42.38-93,147.42-114.37,104.13-21.18,193.63,59.63,45.83,46.79,57.7,105.19l1.75,8.6q20.34,100.07-63.62,192.57-50.25,42.75-104.12,53.71Q686.73-69.79,607.93-144.29q-16,32.49-69.31,57.95-12.93,8.28-37.38,13.25l-8.6,1.75q-93.25,19-168.45-58.62Q290.73-169.35,282-212.37Zm199.21,45.3q54.33-11.05,63.07-81.66l-1.59-17.12q-11.7-57.51-77.59-66.26l-22.38,1.25q-60.21,12.24-66.52,81l2.24,20.29q11.32,55.68,75.51,65.26ZM775.79-186q80.15-16.31,94-108.22,2-11.25-2.56-33.43-15.37-75.6-106.3-91.53l-23.74,1.52-16.3,3.32q-64.29,13.06-84.68,95.95-2.1,22.13,1.4,39.32,16.75,82.41,106.95,94.71Z" transform="translate(539.52 813.31)" style="stroke-miterlimit:5.412558823109405;stroke-width:2.7062794115547026px;fill:url(#w);stroke:url(#x)"/></g><path d="M1476.12-8.63,1479-24.08q11.13-60.46-52.11-108.62a213.9,213.9,0,0,0-39.23-15q-74.6-13.73-120.84,59l-9.7,27.88-1,5.74q-14.38,78.12,64.64,122.34l28.57,8.45Q1421.64,89,1469,15.16Zm-137.07,177-16.78-3.09q-98-18-148-128.1-20.55-59.46-11.12-110.66,18.6-101.08,123.37-152.08,58.79-24.33,115.29-13.92l8.38,1.54q97.11,17.88,149.58,127,20.38,60.35,10.8,112.43-12.6,68.41-73.62,124.73L1258.6,404.49q-22,8.26-36.62,5.59-33.11-6.1-34.89-53.43,3.4-18.54,57.53-77Z" transform="translate(539.52 813.31)" style="stroke-miterlimit:5.258070626284363;stroke-width:2.6290353131421815px;fill:url(#y);stroke:url(#z)"/><path d="M855.37,344q-82.1-15.11-125.71-98Q705.2,195.4,715,142l1.54-8.38q13.24-72,74-109.6Q722.14-47.93,741-150.33q18.68-101.52,124-152.88Q923.75-327.53,980.7-317l8.38,1.55q97.56,18,150.47,127.18,20.31,60.78,10.64,113.31Q1130.69,30.94,1035,74.92q23.46,26.22,27.07,83.48,2.79,14.65-1.61,38.49l-1.54,8.39Q1042.15,296.21,945,335.83,897.31,351.7,855.38,344Zm113.08-163.1q9.75-53-50.72-86.46l-16-4.77q-56.06-10.32-87.86,45.89l-7,20.62q-10.8,58.71,48.82,89.31l19.1,5.34q54.3,10,86.21-44.37Zm89.83-272.35q14.38-78.12-63.44-123.94-9.42-5.84-31.05-9.82-73.71-13.57-121,62.6l-7.23,21.94-2.93,15.9Q821-62.13,888.34-13.68q19.17,9.91,35.94,13,80.34,14.79,124.14-62Z" transform="translate(539.52 813.31)" style="stroke-miterlimit:5.258070626284363;stroke-width:2.6290353131421815px;fill:url(#aa);stroke:url(#ab)"/><g style="opacity:0.7847700119018555"><path d="M623.58,802.43l7,2.89Q658,816.62,687,791.64a103.44,103.44,0,0,0,11-17q13.93-33.78-15.7-62.84l-12.17-7.36-2.6-1.08q-35.37-14.6-64.12,18.22l-6.84,12.61Q583,767,613.08,796.7Zm-69.66-82.3,3.13-7.59q18.32-44.37,75.18-56.93,30.07-3.72,53.26,5.84,45.76,18.88,59.31,73.36,5.58,30.13-5,55.71l-1.56,3.8q-18.15,44-74.83,57.77-30.46,3.55-54-6.17-31-12.78-51.41-47.17L450.68,658.58q-1.68-11.22,1-17.81,6.18-15,28.66-11.09,8.4,3.45,30.54,34.82Z" transform="translate(539.52 813.31)" style="stroke-miterlimit:2.5328766482185716;stroke-width:1.2664383241092858px;fill:url(#ac);stroke:url(#ac)"/><path d="M519.56,474.64q15.33-37.17,58.75-49.43,26.3-6.46,50.47,3.52l3.8,1.56q32.58,13.45,44.23,45.85,40.76-25,87.12-5.92,46,19,59.63,73.72,5.57,30.13-5.07,55.92l-1.56,3.8q-18.23,44.16-75,58.17-30.68,3.48-54.46-6.34-48-19.79-59.12-69.3-14.7,8.44-42,4.41-7.19-.17-18-4.61l-3.8-1.57q-41.17-17-50.11-66.75-2.71-24,5.12-43Zm65.53,69.61q24,9.88,45.82-15.25l3.85-7.06q10.47-25.38-12.83-46l-9-5.36q-26.58-11-47,14.07l-4.42,8.46q-10.15,24.58,12.28,45.06Zm119.35,69.59q35.37,14.6,64.75-17.49,3.69-3.86,7.74-13.65,13.77-33.37-17.39-63.3l-9.61-5.61-7.2-3q-28.38-11.7-57.94,15.16a62.62,62.62,0,0,0-9.73,15.63q-15,36.38,16.81,64.7Z" transform="translate(539.52 813.31)" style="stroke-miterlimit:2.5328766482185716;stroke-width:1.2664383241092858px;fill:url(#ae);stroke:url(#ae)"/></g><g style="opacity:0.595329999923706"><path d="M237.17,1029.45l.06,11.55q.24,45.23,52.53,71.36a156.65,156.65,0,0,0,30.4,5.45q55.79-.29,79.24-59.17l3.19-21.47,0-4.29q-.3-58.43-63.47-79.56l-21.79-2.19q-54.13.27-78.25,60.15ZM312,882.82l12.54-.07q73.29-.37,124.5,72.31,23,40.16,23.18,78.44.39,75.6-68.33,126.79-39.15,25.62-81.4,25.84l-6.27,0q-72.62.39-125.47-71.3-23-40.81-23.19-79.77-.27-51.16,36.12-100.21L337.8,701.14q14.81-9,25.7-9Q388.25,692,396,725.92q.08,13.86-31,63.54Z" transform="translate(539.52 813.31)" style="stroke-miterlimit:3.867092424723623;stroke-width:1.9335462123618115px;fill:url(#ag);stroke:url(#ag)"/><path d="M637.46,689.67q61.39-.33,104.26,53.59,24.6,33.21,24.8,73.15l0,6.28q.27,53.8-38.49,89.33,59.31,42.6,59.71,119.18.39,75.93-68.66,127.45-39.15,25.62-81.73,25.84l-6.27,0q-72.95.38-126.14-71.31-23-41.15-23.19-80.43-.42-79.21,62.73-124.11-20.55-15.75-31-56.62-4-10.21-4.1-28l0-6.27q-.35-68,64.46-109.93,32.25-18,63.61-18.16ZM578.08,823q.21,39.62,48.48,55.53l12.22,1.26q41.93-.21,57.2-45.19l2.23-15.86q-.23-43.9-47.5-57.85l-14.54-1.24q-40.59.21-56.21,43.86Zm-27.63,209.1q.3,58.42,62.81,80.88,7.61,2.92,23.78,2.85,55.13-.28,78.9-61.81l2.22-16.85-.06-11.88q-.24-46.87-55.5-72.67a96.05,96.05,0,0,0-27.75-4.48q-60.08.32-81.22,61.83Z" transform="translate(539.52 813.31)" style="stroke-miterlimit:3.867092424723623;stroke-width:1.9335462123618115px;fill:url(#ai);stroke:url(#aj)"/></g><g style="opacity:0.3972199857234955"><path d="M559.5,396.66,558.34,387q-4.51-37.78-50.73-54.64a132.12,132.12,0,0,0-25.93-1.65q-46.6,5.56-60.59,57L420.47,406l.43,3.59q5.84,48.81,60.66,60.44l18.43-.25q45.22-5.42,59.67-57.77ZM511,526.39l-10.48,1.25q-61.22,7.32-111-48.55-23.06-31.36-26.88-63.36-7.55-63.15,45-112.52,30.28-25.15,65.58-29.38l5.24-.63q60.68-7.24,111.7,47.63,23.13,31.92,27,64.46,5.11,42.75-20.61,87.23L506.75,680.73q-11.52,8.94-20.62,10-20.69,2.47-30.43-25.17-1.38-11.6,19.87-56.09Z" transform="translate(539.52 813.31)" style="stroke-miterlimit:3.253819620394412;stroke-width:1.626909810197206px;fill:url(#ak);stroke:url(#ak)"/><path d="M257.34,719q-51.3,6.13-92.28-34.84-23.75-25.41-27.73-58.78l-.63-5.24q-5.37-45,23.64-78.35-53.66-30-61.3-93.94-7.59-63.42,45.21-113.1,30.28-25.15,65.86-29.41l5.24-.63q60.94-7.29,112.26,47.56,23.16,32.19,27.08,65,7.9,66.18-40.58,109.75,18.67,11.19,31.32,44.37,4.32,8.14,6.11,23l.62,5.24q6.79,56.82-43.37,98.06Q283.54,715.82,257.34,719Zm36.9-117.14q-4-33.09-45.84-41.79l-10.34.11q-35,4.2-43.5,43.25l-.35,13.47q4.39,36.67,45.25,43.82l12.26-.35q33.93-4.05,42.81-42Zm3.11-177.44q-5.84-48.83-60.23-61.61-6.65-1.72-20.16-.11-46.05,5.5-60.05,59.21l-.25,14.3,1.19,9.93q4.68,39.15,53.34,55.44a81.05,81.05,0,0,0,23.63,1.09q50.19-6,62-59.44Z" transform="translate(539.52 813.31)" style="stroke-miterlimit:3.253819620394412;stroke-width:1.626909810197206px;fill:url(#am);stroke:url(#an)"/></g><g style="opacity:0.38565000891685486"><path d="M992.68,464.08l-12.26-4.6q-48-18-96.8,26.82a178.8,178.8,0,0,0-18,30q-22.22,59.21,30.68,107.83l21.46,12,4.55,1.71q62,23.26,109.9-35.1l11.13-22.2q21.56-57.45-32.12-107.17Zm125.11,138.47-5,13.31q-29.19,77.77-126.86,102.66-51.81,8.13-92.46-7.12-80.22-30.1-106.7-123.57-11.34-51.81,5.49-96.65l2.5-6.66Q823.7,407.45,921,380.42q52.51-7.86,93.86,7.65,54.3,20.37,91.57,78.72l193.42,236.45q3.56,19.31-.79,30.87-9.86,26.28-49,20.79-14.71-5.52-54.78-58.52Z" transform="translate(539.52 813.31)" style="stroke-miterlimit:4.383495497452783;stroke-width:2.1917477487263914px;fill:url(#ao);stroke:url(#ao)"/><path d="M1191,1025.26q-24.45,65.16-98.87,88.78-45.12,12.64-87.51-3.26l-6.65-2.5q-57.12-21.43-79.08-76.83-69.09,45.61-150.36,15.11-80.58-30.24-107.28-124.18-11.33-51.81,5.63-97l2.5-6.66q29.05-77.41,126.47-104.81,52.86-7.74,94.55,7.91,84.09,31.54,106.14,116.56,25-15.4,72.49-10,12.43-.12,31.36,7l6.65,2.49q72.18,27.09,90.42,112.67,6,41.43-6.45,74.71ZM1073.69,908.52q-42-15.78-78.4,28.93L989,949.88q-16.69,44.49,24.78,78.84l15.89,8.76q46.61,17.49,80.46-27l7.19-14.88q16.17-43.1-23.76-77.26ZM863.36,794.82q-62-23.27-111,33.87-6.18,6.87-12.62,24-22,58.5,33.61,108.53l16.95,9.15,12.61,4.74q49.76,18.66,99.38-29.45,10.95-14.28,16-27.59,23.92-63.75-32.69-111Z" transform="translate(539.52 813.31)" style="stroke-miterlimit:4.383495497452783;stroke-width:2.1917477487263914px;fill:url(#aq);stroke:url(#ar)"/></g><g style="opacity:0.3384999930858612"><path d="M859.4,826.26l-3.31-1.08q-13-4.23-25.41,8.24a47.12,47.12,0,0,0-4.45,8.17q-5.22,16,9.39,28.3l5.84,3,1.23.41q16.74,5.46,28.79-10.59l2.7-6q5.07-15.51-9.76-28.1Zm34.82,35.35-1.17,3.6q-6.85,21-32.52,28.73-13.68,2.76-24.65-.83-21.66-7.08-29.76-31.6a44.58,44.58,0,0,1,.35-25.75l.58-1.79q6.81-20.81,32.33-29.11,13.86-2.7,25,.95,14.65,4.8,25.23,19.87l54.1,60.59q1.15,5.09.14,8.21-2.31,7.1-12.77,6.09-4-1.3-15.22-14.92Z" transform="translate(539.52 813.31)" style="stroke-miterlimit:1.1656854826448955;stroke-width:0.5828427413224477px;fill:url(#as);stroke:url(#as)"/><path d="M918.52,973.08q-5.74,17.58-25.25,24.72a36.52,36.52,0,0,1-23.28.14l-1.8-.59q-15.42-5-21.89-19.5-17.84,12.92-39.77,5.74-21.76-7.11-29.93-31.76A44.89,44.89,0,0,1,777,926l.59-1.79q6.82-20.91,32.39-29.3,14-2.67,25.22,1,22.7,7.43,29.53,29.75,6.46-4.38,19.14-3.48a24.15,24.15,0,0,1,8.42,1.49l1.79.59q19.49,6.36,25.32,28.89a39.66,39.66,0,0,1-.86,19.93ZM886,943.41q-11.34-3.7-20.49,8.58L864,955.37q-3.93,12,7.48,20.66l4.33,2.15q12.57,4.11,21.06-8.09l1.74-4q3.79-11.62-7.2-20.25Zm-57.18-27.79q-16.74-5.48-29.11,10.27a21.19,21.19,0,0,0-3.07,6.53q-5.16,15.8,10.17,28.45l4.61,2.24,3.4,1.11q13.44,4.39,26.07-9a29,29,0,0,0,3.92-7.52q5.63-17.21-10-29.11Z" transform="translate(539.52 813.31)" style="stroke-miterlimit:1.1656854826448955;stroke-width:0.5828427413224477px;fill:url(#au);stroke:url(#au)"/></g><path d="M1307.3,1310.17l8-7.86q31.1-30.76,13.79-84.6a151.88,151.88,0,0,0-16.8-24.7q-37.93-38.37-94.52-14.75l-17,12.32-3,2.92q-40.18,39.74-12.06,97.7l13.23,16.56q36.83,37.23,94.53,13.4Zm-152,47.48-8.53-8.63q-49.85-50.41-34.24-135,12.2-43.07,38.54-69.11,52-51.42,133.89-38.54,44.21,9.72,73,38.79l4.26,4.31q49.39,49.95,35.6,135-12.66,43.5-39.46,70-35.19,34.8-93.72,42.84l-252.35,65.42q-16.23-4.15-23.65-11.65-16.83-17,1.39-45.38,9.53-9.42,64.92-21.54Z" transform="translate(539.52 813.31)" style="stroke-miterlimit:3.740907491690398;stroke-width:1.870453745845199px;fill:url(#aw);stroke:url(#aw)"/><path d="M801.54,1263.32Q759.78,1221.1,768.05,1155q6.33-39.48,33.79-66.65l4.32-4.26q37-36.6,87.8-33.84-10.68-69.83,42-121.92,52.23-51.64,134.57-38.76,44.21,9.72,73.17,39l4.26,4.32q49.62,50.18,36,135.45-12.88,43.74-39.91,70.46-54.49,53.88-128.25,40.61,3,24.86-18.18,59.73-4.33,9.69-16.6,21.81l-4.32,4.27Q930,1311.46,857.14,1295q-34.27-10.12-55.6-31.7Zm132.37-49.16q27.24-27,5.59-71.1l-7.4-9.3q-28.51-28.83-70-9L849.68,1134q-30.2,29.87-7.85,72l9,10.89q27.62,27.92,68.37,9.18Zm163.26-122.38q40.18-39.75,13.42-98.15-3.12-7.25-14.12-18.37-37.5-37.92-96.12-12.73l-13.15,9.86L979,980.48q-32.24,31.88-12.68,87.54A92.77,92.77,0,0,0,982,1090.23q40.88,41.32,97.69,14.32Z" transform="translate(539.52 813.31)" style="stroke-miterlimit:3.740907491690398;stroke-width:1.870453745845199px;fill:url(#ay);stroke:url(#az)"/><g style="opacity:0.3109399974346161"><path d="M918.24,570.7l.88,17.23q3.46,67.46,83.27,102.85a235.33,235.33,0,0,0,45.72,6q83.21-4.26,114.16-93.72l3.28-32.25-.33-6.4q-4.47-87.14-100.14-114.32l-32.67-1.78q-80.75,4.14-112.61,95.12ZM1019.8,346.82l18.7-1q109.3-5.61,190.7,99.31,37,58.32,40,115.43Q1275,673.34,1176,754.43q-56.64,40.92-119.66,44.15l-9.35.48q-108.32,5.55-192.09-97.76Q817.76,642,814.77,583.9q-3.91-76.31,47-152L1045.8,74q21.46-14.43,37.72-15.26,36.92-1.89,50.84,48.23,1.07,20.68-41.92,96.93Z" transform="translate(539.52 813.31)" style="stroke-miterlimit:5.775179735864055;stroke-width:2.8875898679320273px;fill:url(#ba);stroke:url(#bb)"/><path d="M1492.05,36.31q91.58-4.7,159.22,72.79,39,47.85,42,107.42l.48,9.36q4.11,80.25-51.28,135.9,91.41,59.49,97.27,173.7,5.81,113.24-93.67,194.84-56.64,40.92-120.15,44.17l-9.36.48q-108.8,5.58-193.08-97.7-37.12-59.81-40.13-118.39-6.06-118.15,85.06-189.47-31.74-22.07-50.13-82.33-6.69-15-8-41.54l-.48-9.35q-5.2-101.41,88.6-168.43Q1445.28,38.71,1492,36.3Zm-79.42,203q3,59.08,76.15,79.52l18.31,1q62.52-3.21,82.23-71.35l2.24-23.81q-3.36-65.47-74.85-83l-21.76-.86q-60.56,3.1-80.86,69.3Zm-26.85,313.83q4.47,87.15,99.26,116.34,11.55,3.85,35.67,2.62,82.23-4.22,113.46-97.63l2.16-25.29-.91-17.72q-3.59-69.92-87.79-104.59-23-5.73-41.71-4.77-89.61,4.59-116.91,97.81Z" transform="translate(539.52 813.31)" style="stroke-miterlimit:5.775179735864055;stroke-width:2.8875898679320273px;fill:url(#bc);stroke:url(#bd)"/></g><g style="opacity:0.42601001262664795"><path d="M1235.86,645.27l-7.62,6.57q-29.84,25.73-17.59,75.14a136.92,136.92,0,0,0,13.56,23.23q31.72,36.79,84,19.06l16-10,2.83-2.44q38.55-33.22,16.85-87l-10.87-15.69q-30.78-35.72-84.08-17.85ZM1375.32,612l7.13,8.27q41.67,48.35,22.45,123.36-13.61,37.93-38.87,59.7-49.86,43-122.63,26.39-39.11-11.46-63.13-39.33l-3.57-4.14q-41.29-47.91-23.67-123.45,14.06-38.29,39.75-60.45,33.75-29.08,86.82-32.71l230.68-43.24q14.33,4.74,20.52,11.92,14.09,16.34-4,40.67-9.15,7.89-59.64,15.36Z" transform="translate(539.52 813.31)" style="stroke-miterlimit:3.3679932072009713;stroke-width:1.6839966036004856px;fill:url(#be);stroke:url(#be)"/><path d="M1687.25,718.46q34.92,40.5,23.42,99.38-8.1,35.07-34.45,57.78l-4.14,3.57q-35.49,30.6-80.94,25,5.28,63.38-45.23,106.93-50.09,43.17-123.25,26.54-39.11-11.46-63.32-39.55l-3.57-4.14q-41.48-48.12-24-123.88,14.27-38.49,40.18-60.83,52.26-45,117.7-28.59-1.18-22.5,20-52.53,4.5-8.43,16.26-18.57L1530,706q44.87-38.67,109.28-19.42,30.15,11.19,48,31.88Zm-121.91,36q-26.13,22.53-9.4,63.52l6.07,8.81q23.85,27.65,62.28,12.35l11.77-7.48q28.95-25,11.48-64.18l-7.39-10.33q-23.09-26.79-60.84-12.46Zm-154.17,99.88q-38.55,33.23-18.09,87.34,2.36,6.69,11.55,17.36,31.35,36.38,85.55,17.35l12.42-8,7.84-6.76q30.93-26.65,16.78-77.85a84,84,0,0,0-12.72-20.92q-34.17-39.63-86.87-18.87Z" transform="translate(539.52 813.31)" style="stroke-miterlimit:3.3679932072009713;stroke-width:1.6839966036004856px;fill:url(#bg);stroke:url(#bh)"/></g><path d="M1019.63,751l-4.67,6.06q-18.29,23.74-1.6,58.69A104.36,104.36,0,0,0,1027,831q29.28,22.56,65.51,1.34l10.41-9.93,1.74-2.25q23.63-30.66-.78-67.43l-10.5-10q-28.41-21.9-65.4-.42Zm98.82-46.17,6.58,5.07q38.46,29.64,35.63,88.48-4.32,30.35-19.82,50.45-30.57,39.66-87.34,38.45-30.88-2.55-53.07-19.64l-3.29-2.54Q959,835.75,960.59,776.76q4.6-30.69,20.36-51.14,20.68-26.85,59.68-37.67l165.28-67.57q11.4,1.33,17.12,5.74,13,10,3.22,30.93-5.6,7.28-42.09,20.58Z" transform="translate(539.52 813.31)" style="stroke-miterlimit:2.562259261482759;stroke-width:1.2811296307413795px;fill:url(#bi);stroke:url(#bi)"/><path d="M1367.22,736.4q32.22,24.84,32.67,70.47-.67,27.38-16.82,48.34l-2.54,3.29q-21.77,28.25-56.49,31,13.67,46.43-17.32,86.61-30.71,39.86-87.78,38.66-30.9-2.55-53.24-19.77l-3.29-2.53q-38.29-29.5-36.9-88.64,4.73-30.86,20.62-51.48,32-41.58,83.33-39.33-4.34-16.59,6.85-42.22,2.06-7,9.27-16.32l2.54-3.3q27.5-35.69,78.45-31.21,24.18,3.72,40.64,16.41Zm-85.34,45.52q-16,20.79,2.73,48.77l5.88,5.64q22,16.95,48.3-.33l7.62-7.39q17.76-23-1.28-49.58l-7.08-6.56q-21.32-16.43-47.25,0ZM1182.3,880q-23.62,30.66-.1,67.85,2.77,4.63,11.27,11.17,28.93,22.31,66.41-.18l8-7.9,4.81-6.24q19-24.6.57-60.58a63.36,63.36,0,0,0-12.68-13.64q-31.53-24.3-67.62-.75Z" transform="translate(539.52 813.31)" style="stroke-miterlimit:2.562259261482759;stroke-width:1.2811296307413795px;fill:url(#bk);stroke:url(#bk)"/><g style="opacity:0.541379988193512"><path d="M1707.06,129.25l0,4q.09,15.83,18.39,25a54.46,54.46,0,0,0,10.63,1.9q19.53-.1,27.72-20.71l1.11-7.52v-1.5q-.11-20.43-22.21-27.82l-7.63-.77q-18.94.12-27.37,21.06Zm26.15-51.31,4.39,0q25.64-.15,43.57,25.28,8.05,14,8.13,27.44.15,26.44-23.89,44.37-13.7,9-28.48,9.06h-2.19q-25.41.13-43.91-24.93-8.05-14.28-8.13-27.91-.1-17.89,12.62-35.06l46.89-81.8q5.18-3.15,9-3.17,8.67-.06,11.39,11.83,0,4.84-10.85,22.24Z" transform="translate(539.52 813.31)" style="stroke-miterlimit:1.353021750818702;stroke-width:0.676510875409351px;fill:url(#bm);stroke:url(#bm)"/><path d="M1847.05,10.31q21.48-.12,36.49,18.73a42.44,42.44,0,0,1,8.69,25.59v2.2q.12,18.83-13.45,31.26,20.76,14.89,20.91,41.69.15,26.57-24,44.6-13.7,9-28.59,9.05h-2.19q-25.53.15-44.15-24.92-8.05-14.4-8.13-28.14-.15-27.72,21.93-43.43-7.18-5.51-10.85-19.81a27.84,27.84,0,0,1-1.44-9.81l0-2.19q-.13-23.79,22.54-38.47,11.28-6.3,22.25-6.37ZM1826.3,57q.08,13.86,17,19.42l4.28.44q14.67-.09,20-15.82l.78-5.55q-.09-15.36-16.63-20.23l-5.08-.44q-14.2.09-19.67,15.36Zm-9.63,73.16q.11,20.44,22,28.29a24.65,24.65,0,0,0,8.33,1q19.27-.1,27.59-21.64l.78-5.89,0-4.16q-.09-16.39-19.43-25.41a33.75,33.75,0,0,0-9.71-1.57q-21,.12-28.4,21.65Z" transform="translate(539.52 813.31)" style="stroke-miterlimit:1.353021750818702;stroke-width:0.676510875409351px;fill:url(#bo);stroke:url(#bo)"/></g><path d="M1594.42,259h-14.59q-57.11,0-90.43,65.88a198.5,198.5,0,0,0-7.08,38.35q0,70.44,74.22,100.43l27.1,4.16h5.42q73.77,0,100.85-79.64l2.91-27.51q0-68.36-75.47-99.18Zm184.69,95.41V370.2q0,92.54-92.08,156.75-50.85,28.77-99.2,28.78-95.44,0-159.66-87.07-32.12-49.61-32.13-103v-7.92q0-91.71,90.83-158Q1538.55,171,1587.73,171q64.62,0,126.32,46.24l294.31,170.82q11.25,18.75,11.26,32.51,0,31.26-42.92,40.86-17.52,0-80-39.58Z" transform="translate(539.52 813.31)" style="stroke-miterlimit:4.883200324932034;stroke-width:2.441600162466017px;fill:url(#bq);stroke:url(#bq)"/><path d="M2021,766.54q0,77.52-68.32,131.31-42.11,30.85-92.53,30.87h-7.92q-67.95,0-112.56-49.16-54.17,74.64-150.87,74.65-95.86,0-160.5-87.49-32.1-49.59-32.12-103.36v-7.92q0-92.12,90.83-158.84,52.1-28.77,101.7-28.79,100,0,156.33,80Q1765,622,1816.68,609q12.93-5,35.43-5H1860q85.86,0,138.41,82.08Q2021,726.94,2021,766.53Zm-168-75.82q-50,0-70.43,60.87L1780.87,767q0,52.93,56.71,72.51l20,2.91q55.44,0,73.35-59.62l1.66-18.34q0-51.27-55-71.27Zm-263.86-36.2q-73.78,0-102.52,78.81-3.75,9.58-3.74,30,0,69.61,77.55,100l21.26,2.91h15q59.19,0,92.1-69.63,5.82-19.18,5.82-35,0-75.87-77.55-102.94Z" transform="translate(539.52 813.31)" style="stroke-miterlimit:4.883200324932034;stroke-width:2.441600162466017px;fill:url(#bs);stroke:url(#bt)"/><g style="opacity:0.5486400127410889"><path d="M1838.43,533.14l2.28-1.52q8.88-5.93,7.24-19.65a37.79,37.79,0,0,0-2.88-6.71q-7.32-11-22-7.94l-4.65,2.17-.85.56q-11.49,7.67-7.43,22.88l2.4,4.59q7.1,10.63,22,7.61Zm-38.67,4.31-1.65-2.46q-9.6-14.41-1.93-34,4.93-9.76,12.46-14.78,14.86-9.93,33.91-3a35,35,0,0,1,15.7,12.7l.82,1.23q9.53,14.28,2.26,34-5.05,9.86-12.72,15-10.06,6.71-24.48,5.91l-63.58,4a12.32,12.32,0,0,1-5.13-3.9q-3.24-4.86,2.44-10.82,2.73-1.81,16.58-2.14Z" transform="translate(539.52 813.31)" style="stroke-miterlimit:10;stroke-width:0.4570729702439776px;fill:url(#bu);stroke:url(#bu)"/><path d="M1719.29,498.37q-8.05-12.08-3-27.55a28.71,28.71,0,0,1,11.21-14.42l1.23-.82a27.2,27.2,0,0,1,22.64-4q.69-17.25,15.75-27.3t34.08-3A35.05,35.05,0,0,1,1816.94,434l.82,1.23q9.57,14.35,2.35,34.18-5.13,9.89-12.85,15-15.59,10.4-32.66,3.77-.43,6.1-7.14,13.49a18.88,18.88,0,0,1-5,4.46l-1.23.82q-13.37,8.92-30.08,1.59a31,31,0,0,1-11.86-10.19Zm34-5.64q7.79-5.19,4.65-16.79l-1.35-2.58q-5.49-8.25-16.36-5.4l-3.42,1.62q-8.62,5.76-5.23,16.9l1.64,3q5.34,8,16,5.39ZM1798.19,471q11.49-7.67,7.78-22.92a16.58,16.58,0,0,0-2.53-5.07q-7.23-10.83-22.47-7.52l-3.61,1.75-2.34,1.56q-9.21,6.15-7.11,20.41a22.71,22.71,0,0,0,2.72,6.06q7.89,11.82,22.77,8Z" transform="translate(539.52 813.31)" style="stroke-miterlimit:10;stroke-width:0.4570729702439776px;fill:url(#bw);stroke:url(#bw)"/></g><path d="M1589.86,1218.2v17.93q0,70.21,81,111.16a243.76,243.76,0,0,0,47.16,8.69q86.6,0,123.45-91.28l5.11-33.31v-6.67q0-90.71-97.94-124l-33.83-3.57q-84,0-121.91,92.82Zm117.23-227.09h19.48q113.76-.06,192.74,113.15,35.4,62.51,35.43,122,.06,117.36-107,196.33-61,39.49-126.55,39.53h-9.74q-112.74.06-194.28-111.62-35.39-63.53-35.42-124,0-79.44,56.8-155.32l209.93-361.88q23.05-13.85,40-13.86,38.44,0,50.25,52.76,0,21.52-48.63,98.42Z" transform="translate(539.52 813.31)" style="stroke-miterlimit:6.003600926338815;stroke-width:3.0018004631694075px;fill:url(#by);stroke:url(#bz)"/><path d="M2213.77,693.63q95.31-.06,161.46,84,38,51.74,38,113.74v9.74q0,83.53-60.4,138.4,91.75,66.57,91.82,185.46.06,117.87-107.51,197.35-61,39.49-127.07,39.53h-9.74q-113.25.06-195.31-111.61-35.38-64-35.42-125-.06-123,98.29-192.22-31.79-24.59-47.7-88.12-6.17-15.89-6.18-43.56v-9.74q-.06-105.56,100.87-170.19,50.21-27.69,98.89-27.72ZM2120.61,900.2q0,61.5,74.86,86.57l19,2q65.09,0,89.14-69.75l3.57-24.6q0-68.15-73.33-90.15l-22.55-2q-63,0-87.59,67.69Zm-44.42,324.41q0,90.71,96.92,126,11.79,4.61,36.9,4.59,85.59,0,122.94-95.38l3.58-26.14v-18.45q0-72.76-85.64-113.21-23.58-7.15-43.05-7.15-93.27,0-126.53,95.38Z" transform="translate(539.52 813.31)" style="stroke-miterlimit:6.003600926338815;stroke-width:3.0018004631694075px;fill:url(#ca);stroke:url(#ca)"/><g style="opacity:0.5605400204658508"><path d="M2078.39,246.46l-3.07-10.54q-12-41.23-66.57-51.48a149.43,149.43,0,0,0-29.18,2.94q-50.88,14.81-57,74.7l2.68,20.44,1.14,3.91q15.51,53.28,78.69,56.12l20.49-3.67q49.37-14.37,55.78-75.34Zm-30.13,153.42-11.44,3.33q-66.83,19.44-132.54-33.59-31.46-30.69-41.62-65.6-20.06-68.94,29.36-133.61,29.09-33.6,67.61-44.81l5.72-1.67q66.23-19.28,133.18,32.43,31.63,31.27,42,66.8,13.58,46.67-6.87,100.94l-61.58,248.44q-11.18,12.06-21.11,15-22.57,6.57-38.52-22.43-3.69-12.63,11.77-66.12Z" transform="translate(539.52 813.31)" style="stroke-miterlimit:3.672845549930761;stroke-width:1.8364227749653805px;fill:url(#cc);stroke:url(#cc)"/><path d="M1801.36,661.11q-56,16.29-109.19-21.78Q1661,615.41,1650.45,579l-1.67-5.72q-14.28-49.08,11.87-91.62-65.26-23.44-85.59-93.29-20.14-69.24,29.49-134.29,29.07-33.6,67.9-44.91l5.72-1.66q66.54-19.37,133.79,32.25,31.72,31.58,42.15,67.41,21,72.24-24.95,129.7,22.88,9,43.07,43.63,6.33,8.28,11.06,24.54l1.66,5.72q18,62-30.22,117.2-24.76,24.84-53.36,33.16Zm19.48-137.26q-10.52-36.12-58.75-38.09l-11.49,2q-38.24,11.13-40.47,56.18l2.1,15.07q11.65,40,58.47,40.45l13.59-2.65q37-10.77,39.91-54.71Zm-29.26-198.17q-15.51-53.3-78.45-57.5-7.71-.71-22.46,3.6-50.26,14.63-56,77l2.36,16,3.15,10.83q12.45,42.75,69.63,51.9a91,91,0,0,0,26.52-3.14q54.78-15.94,58.06-77.63Z" transform="translate(539.52 813.31)" style="stroke-miterlimit:3.672845549930761;stroke-width:1.8364227749653805px;fill:url(#ce);stroke:url(#cf)"/></g><g style="opacity:0.7120599746704102"><path d="M2230.65,189.18l10.82-13q42.39-51,8.3-129.7a230.83,230.83,0,0,0-29-34.8Q2157.83-40.64,2076,3.38L2052.12,24.5l-4,4.84q-54.75,65.93-3.74,149.22l22.41,23q61.08,50.74,144.64,6.22ZM2008.3,283.33l-14.15-11.76q-82.68-68.68-71.65-198.64,12.06-66.78,47.94-110,70.86-85.29,196.33-78,68.14,8.15,115.81,47.74l7.07,5.88Q2371.58,6.65,2363.34,137q-12.66,67.53-49.17,111.48-48,57.74-135.09,78.51L1808,463.09q-25.11-3.87-37.4-14.07-27.93-23.2-4.63-68.68,13-15.64,94.78-42.12Z" transform="translate(539.52 813.31)" style="stroke-miterlimit:5.671937961111069;stroke-width:2.8359689805555344px;fill:url(#cg);stroke:url(#ch)"/><path d="M1460.55,193.36Q1391.3,135.81,1394,34.82q3.69-60.51,41.13-105.57l5.87-7.08q50.43-60.7,127.48-64-26.43-103.8,45.34-190.2,71.16-85.67,197.32-78.42,68.14,8.14,116.18,48.05l7.07,5.88q82.3,68.37,74.45,199.07-13,67.91-49.8,112.22Q1884.78,44.11,1771.51,35q8.23,37-18.58,92.83-5.13,15.26-21.83,35.37l-5.88,7.07Q1661.49,247,1549.13,233q-53.19-10.22-88.58-39.6ZM1653,99.57q37.14-44.7-2.08-108.11l-12.54-12.94q-47.3-39.28-106.88-3.18L1514.05-8.95q-41.15,49.53-1.19,109.79L1528,116q45.81,38,104.53,3.74Zm228.25-208.84Q1936-175.19,1887-259.36q-5.77-10.47-24-25.63-62.19-51.66-146.92-5l-18.38,16.83-11.14,13.41q-43.93,52.89-6.19,134,12.81,19.45,27,31.21,67.79,56.31,149.53,7.14Z" transform="translate(539.52 813.31)" style="stroke-miterlimit:5.671937961111069;stroke-width:2.8359689805555344px;fill:url(#ci);stroke:url(#cj)"/></g><g style="opacity:0.6809300184249878"><path d="M1017.13,408.2l.09,12.4q.36,48.52,56.53,76.44a169.4,169.4,0,0,0,32.63,5.78q59.86-.45,84.89-63.68l3.37-23.05,0-4.61q-.46-62.69-68.28-85.2l-23.4-2.31q-58.08.43-83.81,64.74Zm79.93-157.5,13.46-.1q78.63-.58,133.76,77.28,24.75,43,25.06,84.11.62,81.11-73,136.2-41.94,27.59-87.27,27.92l-6.73,0q-77.92.58-134.81-76.21-24.76-43.72-25.07-85.53Q942,359.54,981,306.81L1124.31,55.7q15.86-9.69,27.55-9.77,26.57-.2,35,36.22Q1187,97,1153.7,150.4Z" transform="translate(539.52 813.31)" style="stroke-miterlimit:4.1493153603787105;stroke-width:2.0746576801893553px;fill:url(#ck);stroke:url(#ck)"/><path d="M1445.81,42.67q65.88-.49,112,57.25,26.48,35.58,26.8,78.43l.05,6.73q.43,57.73-41.08,95.94,63.73,45.57,64.35,127.74.61,81.45-73.36,136.91-41.94,27.58-87.63,27.92l-6.73,0q-78.27.58-135.52-76.2-24.77-44.08-25.08-86.24-.63-85,67-133.32-22.08-16.83-33.39-60.67-4.34-11-4.47-30.07l0-6.73q-.56-73,68.89-118.11,34.56-19.38,68.21-19.64Zm-63.39,143.21q.32,42.51,52.15,59.47l13.12,1.32q45-.33,61.26-48.63l2.36-17q-.36-47.11-51.12-62l-15.59-1.3q-43.56.32-60.22,47.2ZM1353.28,410.3q.46,62.7,67.58,86.63,8.17,3.13,25.53,3,59.14-.44,84.51-66.51l2.34-18.08-.09-12.75q-.37-50.29-59.73-77.83-16.34-4.85-29.79-4.74-64.45.48-87,66.53Z" transform="translate(539.52 813.31)" style="stroke-miterlimit:4.1493153603787105;stroke-width:2.0746576801893553px;fill:url(#cm);stroke:url(#cn)"/></g><g style="opacity:0.6905800104141235"><path d="M1254.72,1168.76l-.21,14.44q-.79,56.49,63.88,90.41a196.87,196.87,0,0,0,37.83,7.56q69.69,1,100.43-72l4.5-26.75.08-5.36q1-73-77.34-100.92l-27.17-3.28q-67.63-1-99.21,73.25Zm97-181.34,15.67.22q91.55,1.3,153.75,93.35,27.74,50.71,27,98.55-1.35,94.44-88.43,156.72-49.53,31-102.31,30.3l-7.83-.11q-90.72-1.29-155-92.13-27.72-51.54-27-100.2.92-63.93,47.56-124.31l173.21-288.72q18.72-10.86,32.33-10.67,30.91.44,39.8,43.05-.24,17.32-40.3,78.62Z" transform="translate(539.52 813.31)" style="stroke-miterlimit:4.831291094496644;stroke-width:2.415645547248322px;fill:url(#co);stroke:url(#co)"/><path d="M1763,754.05q76.69,1.1,128.92,69.49,29.92,42.09,29.21,92l-.11,7.84q-1,67.21-50.25,110.65,73.05,54.66,71.69,150.34-1.37,94.85-88.86,157.53-49.53,31-102.72,30.29l-7.83-.11q-91.14-1.3-155.83-92.14-27.72-52-27-101,1.41-99,81.38-153.52-25.29-20.16-37.34-71.47-4.77-12.85-4.45-35.13l.12-7.83q1.2-85,83.18-135.76,40.73-21.69,79.9-21.13Zm-77.42,165.13q-.7,49.49,59.21,70.55L1760,991.6q52.37.74,72.55-55.07l3.17-19.75q.78-54.84-57.94-73.42l-18.12-1.91q-50.72-.72-71.29,53.43ZM1646,1179.71q-1,73,76.49,102.56,9.42,3.84,29.63,4.13,68.87,1,100.06-75.29l3.19-21,.21-14.85q.83-58.56-67.57-92.12-18.88-6-34.55-6.26-75-1.08-103,75.25Z" transform="translate(539.52 813.31)" style="stroke-miterlimit:4.831291094496644;stroke-width:2.415645547248322px;fill:url(#cq);stroke:url(#cr)"/></g><g style="opacity:0.38596001267433167"><path d="M1915.13,1306.07l6.13,7.08q24,27.74,70,16.29a127.24,127.24,0,0,0,21.6-12.65q34.21-29.57,17.65-78.2l-9.35-14.91-2.28-2.63q-31-35.83-81-15.58l-14.59,10.13q-33.2,28.7-16.51,78.28ZM1884,1176.32l7.69-6.65q44.94-38.85,114.78-21,35.32,12.61,55.61,36.11,40.07,46.35,24.7,114.1-10.62,36.4-36.53,58.8l-3.85,3.33q-44.54,38.49-114.86,22.17-35.67-13-56.31-36.92-27.12-31.38-30.54-80.77l-40.52-214.65q4.39-13.33,11.07-19.11,15.18-13.12,37.86,3.71,7.35,8.49,14.36,55.49Z" transform="translate(539.52 813.31)" style="stroke-miterlimit:3.1346275708740543;stroke-width:1.5673137854370272px;fill:url(#cs);stroke:url(#cs)"/><path d="M1982.73,885.87q37.65-32.55,92.46-21.91,32.66,7.5,53.82,32l3.33,3.84q28.51,33,23.35,75.31,59-5,99.57,42,40.24,46.56,24.84,114.68-10.62,36.4-36.73,59l-3.85,3.32q-44.73,38.67-115.27,22.53-35.84-13.23-56.66-37.33-42-48.59-26.74-109.51-21,1.14-48.92-18.55-7.86-4.17-17.3-15.11l-3.33-3.84q-36-41.7-18.2-101.68,10.39-28.08,29.62-44.7Zm33.66,113.43q21,24.29,59.13,8.67l8.19-5.67q25.71-22.21,11.43-58l-7-10.94q-23.26-26.92-59.74-10.62l-9.61,6.89q-24.9,21.52-11.52,56.64Zm93.14,143.37q31,35.83,81.3,16.73,6.24-2.19,16.15-10.77,33.81-29.22,16.05-79.65l-7.51-11.54-6.3-7.29q-24.84-28.76-72.47-15.53a77.78,77.78,0,0,0-19.46,11.87q-36.84,31.83-17.46,80.86Z" transform="translate(539.52 813.31)" style="stroke-miterlimit:3.1346275708740543;stroke-width:1.5673137854370272px;fill:url(#cu);stroke:url(#cu)"/></g><g style="opacity:0.8174099922180176"><path d="M2489.94,227.54l15.42-5.4Q2565.75,201,2576.64,119a222.32,222.32,0,0,0-6.7-43.17Q2543.87,1.36,2454.29-2.91L2424.1,2.71l-5.73,2q-78,27.32-77.2,121.53l7.09,30.17q25.3,72.29,116.51,77ZM2259.33,195l-5.86-16.75q-34.26-97.84,39.4-199.83,43.13-49.23,94.26-67.13,100.95-35.32,201.07,33,52.31,40.56,72.05,97l2.94,8.38q33.93,97-37.62,200.68-44,49.55-96,67.75-68.33,23.91-150.69-2.18L2004.4,244.1q-18.84-15.66-23.93-30.21-11.58-33.06,30.28-59.09,18.51-6.48,99.29,12.25Z" transform="translate(539.52 813.31)" style="stroke-miterlimit:5.4708219944452114;stroke-width:2.7354109972226057px;fill:url(#cw);stroke:url(#cx)"/><path d="M1851.08-151.47q-28.69-82,23.69-164.14,33.11-48.19,86.44-66.87l8.38-2.93q71.85-25.14,137.22,10.35,29.68-99,132-134.75,101.38-35.48,202.1,33.16,52.3,40.57,72.21,97.43l2.93,8.38q34.1,97.39-37.31,201.56-44.45,49.71-96.91,68.06Q2276-64.18,2186.86-128q-11.59,34.73-61.47,67.53-11.8,10.06-35.61,18.4l-8.38,2.93q-90.8,31.78-176.74-35.6-38.92-34.86-53.58-76.74Zm205.72,18q52.9-18.51,52-90.43l-3.94-16.92q-19.6-56-86.8-55.71l-22.24,4.32q-58.62,20.52-55.51,90.19l5,20q19,54.21,84.57,55Zm292.45-59.32q78-27.31,79.28-121.26.42-11.53-7.14-33.12-25.77-73.62-119-77.09l-23.56,4.78-15.87,5.56q-62.59,21.92-71.65,107.71.93,22.43,6.79,39.18,28.08,80.22,120.1,80.17Z" transform="translate(539.52 813.31)" style="stroke-miterlimit:5.4708219944452114;stroke-width:2.7354109972226057px;fill:url(#cy);stroke:url(#cz)"/></g><path d="M10.16,416.79l.09,5.11q.36,20,23.65,31.3a70.38,70.38,0,0,0,13.49,2.24q24.69-.44,34.74-26.63l1.29-9.52,0-1.9q-.47-25.86-28.53-34.86l-9.66-.85q-24,.42-34.3,27.06Zm32.31-65.32,5.55-.1q32.43-.57,55.5,31.31,10.41,17.65,10.7,34.6.6,33.45-29.53,56.49Q67.5,485.34,48.8,485.67l-2.77.05q-32.14.57-55.94-30.87-10.39-17.94-10.71-35.17Q-21,397-5.19,375.12L52.87,270.91q6.51-4.07,11.33-4.14,11-.19,14.58,14.79.12,6.13-13.38,28.3Z" transform="translate(539.52 813.31)" style="stroke-miterlimit:1.7117909628015666;stroke-width:0.8558954814007833px;fill:url(#da);stroke:url(#da)"/><path d="M185.45,264.17q27.17-.5,46.44,23.14a53.68,53.68,0,0,1,11.39,32.24l.05,2.77q.42,23.82-16.54,39.76,26.49,18.53,27.09,52.42.6,33.6-29.68,56.79-17.17,11.56-36,11.9l-2.77.05q-32.29.57-56.23-30.86-10.41-18.09-10.72-35.47-.61-35.07,27.08-55.29-9.18-6.86-14-24.88-1.83-4.5-2-12.39l-.05-2.78q-.54-30.09,27.92-49,14.18-8.13,28.05-8.39Zm-25.54,59.35q.3,17.53,21.76,24.31l5.42.49Q205.65,348,212.16,328l.9-7q-.36-19.43-21.35-25.34l-6.44-.47q-18,.33-24.64,19.73Zm-11.07,92.7q.47,25.86,28.25,35.45,3.39,1.26,10.54,1.13,24.41-.44,34.58-27.8l.89-7.47-.09-5.26q-.37-20.75-25-31.85a42.87,42.87,0,0,0-12.31-1.83q-26.59.48-35.6,27.82Z" transform="translate(539.52 813.31)" style="stroke-miterlimit:1.7117909628015666;stroke-width:0.8558954814007833px;fill:url(#dc);stroke:url(#dc)"/><g style="opacity:0.6147900223731995"><path d="M799.08,437.54V450q0,48.78,55.82,77.54a166.64,166.64,0,0,0,32.46,6.21q59.64.3,85-62.95l3.51-23.13V443q-.06-63-67.47-86.5l-23.29-2.6q-57.87-.29-83.92,64ZM879.73,280.2l13.41.07q78.33.39,132.74,79.34,24.39,43.56,24.42,84.87.08,81.52-73.62,136-42,27.21-87.12,27l-6.71,0q-77.62-.39-133.79-78.28-24.39-44.26-24.42-86.29-.06-55.19,39.06-107.69L908.14,84.53Q924,75,935.65,75.05q26.46.14,34.61,36.85,0,15-33.45,68.19Z" transform="translate(539.52 813.31)" style="stroke-width:2px;fill:url(#de);stroke:url(#de)"/><path d="M1228.5,75.43q65.63.31,111.2,58.94,26.15,36.09,26.18,79.17v6.77q0,58-41.55,95.93,63.2,46.59,63.27,129.2.08,81.88-74,136.71-42,27.21-87.48,27l-6.7,0q-78-.39-134.51-78.29-24.37-44.62-24.42-87-.08-85.45,67.62-133.19-21.89-17.19-32.87-61.4-4.24-11.05-4.26-30.29v-6.76q-.06-73.35,69.4-117.87,34.56-19.05,68.08-18.89ZM1164.42,218.6q0,42.72,51.57,60.43l13,1.49q44.82.21,61.35-48.12l2.46-17.08q0-47.35-50.52-62.92l-15.52-1.5q-43.41-.21-60.3,46.7Zm-30.49,225.23q.06,63,66.76,87.92,8.13,3.24,25.41,3.33,58.92.28,84.62-65.81l2.46-18.15,0-12.81q0-50.56-59-79-16.25-5.07-29.65-5.13-64.21-.33-87.09,65.79Z" transform="translate(539.52 813.31)" style="stroke-width:2px;fill:url(#dg);stroke:url(#dh)"/></g><path d="M2084.77,984.08l.58,8.35q2.27,32.66,41.26,49.11a113.92,113.92,0,0,0,22.21,2.53q40.29-2.8,54.5-46.42l1.31-15.66-.22-3.1q-2.92-42.2-49.53-54.53l-15.85-.57q-39.09,2.72-53.74,47.08ZM2132,874.69l9.06-.63q52.92-3.67,93.28,46.46,18.48,27.94,20.39,55.59,3.79,54.58-43.48,94.76-27.09,20.33-57.6,22.44l-4.53.32q-52.46,3.63-94-45.7-18.51-28.41-20.45-56.54-2.58-37,21.44-74.07l86-175.07q10.28-7.18,18.15-7.73,17.88-1.24,25.06,22.93.71,10-19.47,47.34Z" transform="translate(539.52 813.31)" style="stroke-miterlimit:2.79932229279313;stroke-width:1.399661146396565px;fill:url(#di);stroke:url(#di)"/><path d="M2358.18,720.07Q2402.52,717,2436,754q19.32,22.84,21.32,51.69l.31,4.53q2.7,38.87-23.66,66.32,44.82,28,48.66,83.33,3.81,54.82-43.69,95.25-27.09,20.31-57.84,22.45l-4.53.32q-52.68,3.66-94.43-45.66-18.51-28.65-20.48-57-4-57.21,39.56-92.57-15.57-10.43-25-39.47-3.37-7.18-4.26-20.06l-.32-4.53q-3.41-49.1,41.47-82.4,22.45-14.49,45.11-16.07Zm-36.71,99.07q2,28.62,37.6,37.87l8.89.35q30.27-2.11,39.22-35.3l.88-11.56q-2.2-31.71-37-39.59l-10.56-.22q-29.33,2-38.58,34.29Zm-10.26,152.34q2.92,42.19,49.12,55.51,5.64,1.77,17.31,1,39.81-2.78,54.13-48.31l.83-12.28-.6-8.58q-2.34-33.85-43.46-49.92a69.72,69.72,0,0,0-20.26-1.94q-43.38,3-55.8,48.42Z" transform="translate(539.52 813.31)" style="stroke-miterlimit:2.79932229279313;stroke-width:1.399661146396565px;fill:url(#dk);stroke:url(#dk)"/></svg>